{
    "accessors" : [
        {
            "bufferView" : 0, 
            "componentType" : 5121, 
            "count" : 162, 
            "max" : [
                83
            ], 
            "min" : [
                0
            ], 
            "type" : "SCALAR"
        }, 
        {
            "bufferView" : 1, 
            "componentType" : 5126, 
            "count" : 84, 
            "max" : [
                1.3990774154663086, 
                1.0266635417938232, 
                0.9098159074783325
            ], 
            "min" : [
                -1.3990774154663086, 
                -0.35336101055145264, 
                -0.711073637008667
            ], 
            "type" : "VEC3"
        }, 
        {
            "bufferView" : 2, 
            "componentType" : 5126, 
            "count" : 84, 
            "max" : [
                0.9981136918067932, 
                1.0, 
                0.8961779475212097
            ], 
            "min" : [
                -0.9981136918067932, 
                -0.9986104965209961, 
                -0.9999348521232605
            ], 
            "type" : "VEC3"
        }, 
        {
            "bufferView" : 3, 
            "componentType" : 5123, 
            "count" : 84, 
            "max" : [
                0, 
                0, 
                0, 
                0
            ], 
            "min" : [
                0, 
                0, 
                0, 
                0
            ], 
            "type" : "VEC4"
        }, 
        {
            "bufferView" : 4, 
            "componentType" : 5126, 
            "count" : 84, 
            "max" : [
                0.0, 
                0.0, 
                0.0, 
                0.0
            ], 
            "min" : [
                0.0, 
                0.0, 
                0.0, 
                0.0
            ], 
            "type" : "VEC4"
        }, 
        {
            "bufferView" : 5, 
            "componentType" : 5121, 
            "count" : 387, 
            "max" : [
                213
            ], 
            "min" : [
                0
            ], 
            "type" : "SCALAR"
        }, 
        {
            "bufferView" : 6, 
            "componentType" : 5126, 
            "count" : 214, 
            "max" : [
                1.4479975700378418, 
                1.0266635417938232, 
                0.9098159074783325
            ], 
            "min" : [
                -1.4479975700378418, 
                -0.9406185150146484, 
                -0.711073637008667
            ], 
            "type" : "VEC3"
        }, 
        {
            "bufferView" : 7, 
            "componentType" : 5126, 
            "count" : 214, 
            "max" : [
                1.0, 
                1.0, 
                0.9976897239685059
            ], 
            "min" : [
                -1.0, 
                -0.9999962449073792, 
                -0.9765536189079285
            ], 
            "type" : "VEC3"
        }, 
        {
            "bufferView" : 8, 
            "componentType" : 5123, 
            "count" : 214, 
            "max" : [
                0, 
                0, 
                0, 
                0
            ], 
            "min" : [
                0, 
                0, 
                0, 
                0
            ], 
            "type" : "VEC4"
        }, 
        {
            "bufferView" : 9, 
            "componentType" : 5126, 
            "count" : 214, 
            "max" : [
                0.0, 
                0.0, 
                0.0, 
                0.0
            ], 
            "min" : [
                0.0, 
                0.0, 
                0.0, 
                0.0
            ], 
            "type" : "VEC4"
        }
    ], 
    "asset" : {
        "generator" : "Khronos Blender glTF 2.0 exporter", 
        "version" : "2.0"
    }, 
    "bufferViews" : [
        {
            "buffer" : 0, 
            "byteLength" : 162, 
            "byteOffset" : 0, 
            "target" : 34963
        }, 
        {
            "buffer" : 0, 
            "byteLength" : 1008, 
            "byteOffset" : 164, 
            "target" : 34962
        }, 
        {
            "buffer" : 0, 
            "byteLength" : 1008, 
            "byteOffset" : 1172, 
            "target" : 34962
        }, 
        {
            "buffer" : 0, 
            "byteLength" : 672, 
            "byteOffset" : 2180, 
            "target" : 34962
        }, 
        {
            "buffer" : 0, 
            "byteLength" : 1344, 
            "byteOffset" : 2852, 
            "target" : 34962
        }, 
        {
            "buffer" : 0, 
            "byteLength" : 387, 
            "byteOffset" : 4196, 
            "target" : 34963
        }, 
        {
            "buffer" : 0, 
            "byteLength" : 2568, 
            "byteOffset" : 4584, 
            "target" : 34962
        }, 
        {
            "buffer" : 0, 
            "byteLength" : 2568, 
            "byteOffset" : 7152, 
            "target" : 34962
        }, 
        {
            "buffer" : 0, 
            "byteLength" : 1712, 
            "byteOffset" : 9720, 
            "target" : 34962
        }, 
        {
            "buffer" : 0, 
            "byteLength" : 3424, 
            "byteOffset" : 11432, 
            "target" : 34962
        }
    ], 
    "buffers" : [
        {
            "byteLength" : 14856, 
            "uri" : "head.bin"
        }
    ], 
    "cameras" : [
        {
            "name" : "Camera", 
            "perspective" : {
                "aspectRatio" : 1.7777777777777777, 
                "yfov" : 0.5033799372418416, 
                "zfar" : 100.0, 
                "znear" : 0.10000000149011612
            }, 
            "type" : "perspective"
        }
    ], 
    "materials" : [
        {
            "name" : "Material", 
            "pbrMetallicRoughness" : {
                "baseColorFactor" : [
                    0.7228177655163073, 
                    0.48501940496294793, 
                    0.42078266770813855, 
                    1.0
                ], 
                "metallicFactor" : 0.0
            }
        }, 
        {
            "name" : "Material.001", 
            "pbrMetallicRoughness" : {
                "baseColorFactor" : [
                    0.0012381509130917623, 
                    0.000356364791003835, 
                    0.0009171402218511732, 
                    1.0
                ], 
                "metallicFactor" : 0.0
            }
        }
    ], 
    "meshes" : [
        {
            "name" : "Cube.001", 
            "primitives" : [
                {
                    "attributes" : {
                        "JOINTS_0" : 3, 
                        "NORMAL" : 2, 
                        "POSITION" : 1, 
                        "WEIGHTS_0" : 4
                    }, 
                    "indices" : 0, 
                    "material" : 1
                }, 
                {
                    "attributes" : {
                        "JOINTS_0" : 8, 
                        "NORMAL" : 7, 
                        "POSITION" : 6, 
                        "WEIGHTS_0" : 9
                    }, 
                    "indices" : 5, 
                    "material" : 0
                }
            ]
        }
    ], 
    "nodes" : [
        {
            "camera" : 0, 
            "name" : "Correction_Camera", 
            "rotation" : [
                -0.7071067690849304, 
                -0.0, 
                0.0, 
                0.7071067690849304
            ]
        }, 
        {
            "children" : [
                0
            ], 
            "name" : "Camera", 
            "rotation" : [
                0.483536034822464, 
                0.33687159419059753, 
                -0.20870360732078552, 
                0.7804827094078064
            ], 
            "translation" : [
                7.481131553649902, 
                5.34366512298584, 
                6.5076398849487305
            ]
        }, 
        {
            "mesh" : 0, 
            "name" : "Cube.001", 
            "rotation" : [
                0.0, 
                1.0, 
                -0.0, 
                -0.00017161767755169421
            ], 
            "scale" : [
                0.04999997466802597, 
                0.10000000149011612, 
                0.09999994933605194
            ]
        }, 
        {
            "name" : "Lamp", 
            "rotation" : [
                0.16907575726509094, 
                0.7558802962303162, 
                -0.27217137813568115, 
                0.570947527885437
            ], 
            "scale" : [
                1.0, 
                1.0, 
                0.9999999403953552
            ], 
            "translation" : [
                4.076245307922363, 
                5.903861999511719, 
                -1.0054539442062378
            ]
        }
    ], 
    "scene" : 0, 
    "scenes" : [
        {
            "name" : "Scene", 
            "nodes" : [
                2, 
                3, 
                1
            ]
        }
    ]
}
